# xmcd
#
# Track frame offsets:
#	150
#	73654
#	114115
#	145900
#	198194
#	243837
#
# Disc length: 3610 seconds
#
# Revision: 1
# Processed by: cddbd v1.5.2PL0 Copyright (c) Steve Scherf et al.
# Submitted via: audiograbber 1.83.01
#
DISCID=4a0e1806
DTITLE=Grateful Dead - 78-05-07 Rennselaer Polytechnic, Troy NY
DYEAR=1900
DGENRE=
TTITLE0=Drums
TTITLE1=Iko Iko
TTITLE2=The Other One
TTITLE3=Black Peter
TTITLE4=Around and Around
TTITLE5=US Blues
EXTD=
EXTT0=
EXTT1=
EXTT2=
EXTT3=
EXTT4=
EXTT5=
PLAYORDER=
